<svg version="1.1" viewBox="250.0 130.0 250.0 220.0" fill="none" stroke="none" stroke-linecap="square" stroke-miterlimit="10" xmlns:xlink="http://www.w3.org/1999/xlink" xmlns="http://www.w3.org/2000/svg"><clipPath id="p.0"><path d="m0 0l800.0 0l0 600.0l-800.0 0l0 -600.0z" clip-rule="nonzero"/></clipPath><g clip-path="url(#p.0)"><path fill="#000000" fill-opacity="0.0" d="m0 0l800.0 0l0 600.0l-800.0 0z" fill-rule="evenodd"/><path fill="#cfe2f3" d="m275.81366 129.67455l209.95276 0l0 225.38582l-209.95276 0z" fill-rule="evenodd"/><path stroke="#000000" stroke-width="1.0" stroke-linejoin="round" stroke-linecap="butt" d="m275.81366 129.67455l209.95276 0l0 225.38582l-209.95276 0z" fill-rule="evenodd"/><path fill="#000000" fill-opacity="0.0" d="m373.5853 280.96063l-43.212585 46.299225" fill-rule="evenodd"/><path stroke="#000000" stroke-width="1.0" stroke-linejoin="round" stroke-linecap="butt" d="m373.5853 280.96063l-43.212585 46.299225" fill-rule="evenodd"/><path fill="#000000" fill-opacity="0.0" d="m373.5853 280.96063l37.039368 47.338593" fill-rule="evenodd"/><path stroke="#000000" stroke-width="1.0" stroke-linejoin="round" stroke-linecap="butt" d="m373.5853 280.96063l37.039368 47.338593" fill-rule="evenodd"/><path fill="#000000" fill-opacity="0.0" d="m373.5853 283.01837l1.0393677 -74.11023" fill-rule="evenodd"/><path stroke="#000000" stroke-width="1.0" stroke-linejoin="round" stroke-linecap="butt" d="m373.5853 283.01837l1.0393677 -74.11023" fill-rule="evenodd"/><path fill="#000000" fill-opacity="0.0" d="m373.5853 229.50131l-40.125977 -33.95276" fill-rule="evenodd"/><path stroke="#000000" stroke-width="1.0" stroke-linejoin="round" stroke-linecap="butt" d="m373.5853 229.50131l-40.125977 -33.95276" fill-rule="evenodd"/><path fill="#000000" fill-opacity="0.0" d="m375.64304 229.50131l48.37796 -37.039368" fill-rule="evenodd"/><path stroke="#000000" stroke-width="1.0" stroke-linejoin="round" stroke-linecap="butt" d="m375.64304 229.50131l48.37796 -37.039368" fill-rule="evenodd"/><path fill="#cfe2f3" d="m359.17584 196.05774l0 0c0 -9.375793 6.684021 -16.97638 14.929138 -16.97638l0 0c3.9594727 0 7.7567444 1.7885895 10.556488 4.972275c2.7997742 3.1836853 4.37265 7.5016937 4.37265 12.004105l0 0c0 9.375793 -6.6839905 16.97638 -14.929138 16.97638l0 0c-8.245117 0 -14.929138 -7.600586 -14.929138 -16.97638z" fill-rule="evenodd"/><path stroke="#000000" stroke-width="1.0" stroke-linejoin="round" stroke-linecap="butt" d="m359.17584 196.05774l0 0c0 -9.375793 6.684021 -16.97638 14.929138 -16.97638l0 0c3.9594727 0 7.7567444 1.7885895 10.556488 4.972275c2.7997742 3.1836853 4.37265 7.5016937 4.37265 12.004105l0 0c0 9.375793 -6.6839905 16.97638 -14.929138 16.97638l0 0c-8.245117 0 -14.929138 -7.600586 -14.929138 -16.97638z" fill-rule="evenodd"/><path fill="#000000" fill-opacity="0.0" d="m373.5853 281.9895l0 16.472443" fill-rule="evenodd"/><path stroke="#000000" stroke-width="1.0" stroke-linejoin="round" stroke-linecap="butt" d="m373.5853 281.9895l0 16.472443" fill-rule="evenodd"/><path fill="#cfe2f3" d="m369.87402 285.62204l0 0c0 -0.96539307 0.69799805 -1.7480164 1.5590515 -1.7480164l0 0c0.41348267 0 0.8100281 0.18417358 1.102417 0.5119934c0.29238892 0.32781982 0.45663452 0.7724304 0.45663452 1.236023l0 0c0 0.9654236 -0.69799805 1.7480469 -1.5590515 1.7480469l0 0c-0.86105347 0 -1.5590515 -0.7826233 -1.5590515 -1.7480469z" fill-rule="evenodd"/><path stroke="#000000" stroke-width="1.0" stroke-linejoin="round" stroke-linecap="butt" d="m369.87402 285.62204l0 0c0 -0.96539307 0.69799805 -1.7480164 1.5590515 -1.7480164l0 0c0.41348267 0 0.8100281 0.18417358 1.102417 0.5119934c0.29238892 0.32781982 0.45663452 0.7724304 0.45663452 1.236023l0 0c0 0.9654236 -0.69799805 1.7480469 -1.5590515 1.7480469l0 0c-0.86105347 0 -1.5590515 -0.7826233 -1.5590515 -1.7480469z" fill-rule="evenodd"/><path fill="#cfe2f3" d="m373.5853 285.62204l0 0c0 -0.96539307 0.69802856 -1.7480164 1.5590515 -1.7480164l0 0c0.41348267 0 0.8100586 0.18417358 1.102417 0.5119934c0.29238892 0.32781982 0.45663452 0.7724304 0.45663452 1.236023l0 0c0 0.9654236 -0.69799805 1.7480469 -1.5590515 1.7480469l0 0c-0.86102295 0 -1.5590515 -0.7826233 -1.5590515 -1.7480469z" fill-rule="evenodd"/><path stroke="#000000" stroke-width="1.0" stroke-linejoin="round" stroke-linecap="butt" d="m373.5853 285.62204l0 0c0 -0.96539307 0.69802856 -1.7480164 1.5590515 -1.7480164l0 0c0.41348267 0 0.8100586 0.18417358 1.102417 0.5119934c0.29238892 0.32781982 0.45663452 0.7724304 0.45663452 1.236023l0 0c0 0.9654236 -0.69799805 1.7480469 -1.5590515 1.7480469l0 0c-0.86102295 0 -1.5590515 -0.7826233 -1.5590515 -1.7480469z" fill-rule="evenodd"/><path fill="#cfe2f3" d="m358.10498 151.74278l0 0c0 -8.419083 7.163452 -15.244095 16.0 -15.244095l0 0c4.243469 0 8.313141 1.6060638 11.313721 4.4648895c3.0005798 2.8588257 4.6862793 6.7362213 4.6862793 10.779205l0 0c0 8.419083 -7.163452 15.244095 -16.0 15.244095l0 0c-8.836548 0 -16.0 -6.825012 -16.0 -15.244095z" fill-rule="evenodd"/><path stroke="#000000" stroke-width="1.0" stroke-linejoin="round" stroke-linecap="butt" d="m358.10498 151.74278l0 0c0 -8.419083 7.163452 -15.244095 16.0 -15.244095l0 0c4.243469 0 8.313141 1.6060638 11.313721 4.4648895c3.0005798 2.8588257 4.6862793 6.7362213 4.6862793 10.779205l0 0c0 8.419083 -7.163452 15.244095 -16.0 15.244095l0 0c-8.836548 0 -16.0 -6.825012 -16.0 -15.244095z" fill-rule="evenodd"/><path fill="#000000" fill-opacity="0.0" d="m362.7913 162.52199l-42.80316 28.472443" fill-rule="evenodd"/><path stroke="#000000" stroke-width="1.0" stroke-linejoin="round" stroke-linecap="butt" d="m362.7913 162.52199l-42.80316 28.472443" fill-rule="evenodd"/><path fill="#000000" fill-opacity="0.0" d="m385.4187 162.52199l54.078735 31.46457" fill-rule="evenodd"/><path stroke="#000000" stroke-width="1.0" stroke-linejoin="round" stroke-linecap="butt" d="m385.4187 162.52199l54.078735 31.46457" fill-rule="evenodd"/><path fill="#000000" fill-opacity="0.0" d="m358.10498 151.74278l-16.094482 5.259842" fill-rule="evenodd"/><path stroke="#000000" stroke-width="1.0" stroke-linejoin="round" stroke-linecap="butt" d="m358.10498 151.74278l-16.094482 5.259842" fill-rule="evenodd"/><path fill="#000000" fill-opacity="0.0" d="m390.10498 151.74278l18.897644 7.244095" fill-rule="evenodd"/><path stroke="#000000" stroke-width="1.0" stroke-linejoin="round" stroke-linecap="butt" d="m390.10498 151.74278l18.897644 7.244095" fill-rule="evenodd"/></g></svg>