<svg height='100px' width='100px'  fill="#000000" xmlns:x="http://ns.adobe.com/Extensibility/1.0/" xmlns:i="http://ns.adobe.com/AdobeIllustrator/10.0/" xmlns:graph="http://ns.adobe.com/Graphs/1.0/" xmlns="http://www.w3.org/2000/svg" xmlns:xlink="http://www.w3.org/1999/xlink" version="1.1" x="0px" y="0px" viewBox="0 0 100 100" enable-background="new 0 0 100 100" xml:space="preserve"><g><g i:extraneous="self"><path d="M50.25,13.204c-2.332,0-4.611,0.229-6.824,0.648l0.003,0.004c-1.491,0.282-7.328,2.265-10.103,7.023    c-2.699,4.628-2.86,10.523-0.478,17.522c3.866,11.359,13.128,10.32,15.972,9.705c0.396-0.873,1.082-2.201,2.126-3.63    c3.053-4.174,9.156-9.155,19.901-5.791c9.586,3.002,13.942,8.118,15.921,12.145c0.01-0.36,0.027-0.718,0.027-1.081    C86.796,29.6,70.401,13.204,50.25,13.204z M49.168,33.996c-1.914,0-3.466-1.551-3.466-3.465c0-1.913,1.552-3.465,3.466-3.465    s3.463,1.552,3.463,3.465C52.631,32.445,51.082,33.996,49.168,33.996z"></path><path d="M83.544,53.139c-2.142-4.911-6.805-8.522-13.861-10.732c-11.204-3.51-15.881,4.163-17.185,6.986    c0.592,0.756,1.397,1.903,2.139,3.364c2.341,4.611,4.021,12.309-3.842,20.368c-7.018,7.193-13.555,8.761-18.041,8.702    c5.199,2.847,11.162,4.469,17.496,4.469c14.539,0,27.119-8.534,33-20.856h-0.004C83.898,64.069,85.745,58.188,83.544,53.139z     M68.657,63.339c-1.913,0-3.464-1.551-3.464-3.464c0-1.914,1.551-3.465,3.464-3.465c1.914,0,3.465,1.551,3.465,3.465    C72.122,61.788,70.571,63.339,68.657,63.339z"></path><path d="M50.25,2C23.879,2,2.5,23.379,2.5,49.75c0,26.373,21.379,47.75,47.75,47.75C76.622,97.5,98,76.123,98,49.75    C98,23.379,76.622,2,50.25,2z M50.25,91.38c-22.955,0-41.631-18.675-41.631-41.63c0-22.955,18.676-41.63,41.631-41.63    s41.63,18.676,41.63,41.63C91.88,72.705,73.205,91.38,50.25,91.38z"></path><path d="M48.006,70.402c8.198-8.404,3.474-16.045,1.545-18.485c-0.94,0.186-2.328,0.385-3.967,0.385    c-5.172,0-12.797-1.984-16.425-12.643c-3.233-9.497-1.685-16.03,0.393-20.006C19.987,26.25,13.704,37.279,13.704,49.75    c0,8.553,2.961,16.422,7.901,22.654c1.331,1.509,5.476,5.206,10.557,5.503C37.512,78.22,42.842,75.694,48.006,70.402z     M30.328,62.04c0-1.913,1.551-3.465,3.464-3.465s3.465,1.552,3.465,3.465c0,1.914-1.552,3.464-3.465,3.464    S30.328,63.954,30.328,62.04z"></path></g></g></svg>